<?xml version="1.0" encoding="UTF-8" standalone="no"?>
<!DOCTYPE svg PUBLIC "-//W3C//DTD SVG 1.1//EN"
 "http://www.w3.org/Graphics/SVG/1.1/DTD/svg11.dtd">
<!-- Generated by graphviz version 2.38.0 (20140413.2041)
 -->
<!-- Title: G Pages: 1 -->
<svg width="416pt" height="427pt"
 viewBox="0.00 0.00 416.27 427.00" xmlns="http://www.w3.org/2000/svg" xmlns:xlink="http://www.w3.org/1999/xlink">
<g id="graph0" class="graph" transform="scale(1 1) rotate(0) translate(4 423)">
<title>G</title>
<polygon fill="white" stroke="none" points="-4,4 -4,-423 412.265,-423 412.265,4 -4,4"/>
<g id="clust1" class="cluster"><title>cluster_Global</title>
<path fill="none" stroke="gray" d="M156.834,-8C156.834,-8 388.265,-8 388.265,-8 394.265,-8 400.265,-14 400.265,-20 400.265,-20 400.265,-399 400.265,-399 400.265,-405 394.265,-411 388.265,-411 388.265,-411 156.834,-411 156.834,-411 150.834,-411 144.834,-405 144.834,-399 144.834,-399 144.834,-20 144.834,-20 144.834,-14 150.834,-8 156.834,-8"/>
<text text-anchor="middle" x="272.55" y="-398.2" font-family="Times,serif" font-size="11.00" fill="gray">Global</text>
</g>
<g id="clust2" class="cluster"><title>cluster_\Phapper</title>
<path fill="none" stroke="gray" d="M164.834,-16C164.834,-16 380.265,-16 380.265,-16 386.265,-16 392.265,-22 392.265,-28 392.265,-28 392.265,-372 392.265,-372 392.265,-378 386.265,-384 380.265,-384 380.265,-384 164.834,-384 164.834,-384 158.834,-384 152.834,-378 152.834,-372 152.834,-372 152.834,-28 152.834,-28 152.834,-22 158.834,-16 164.834,-16"/>
<text text-anchor="middle" x="272.55" y="-371.2" font-family="Times,serif" font-size="11.00" fill="gray">Phapper</text>
</g>
<g id="clust3" class="cluster"><title>cluster_\Phapper\Exception</title>
<path fill="none" stroke="gray" d="M172.834,-286C172.834,-286 372.265,-286 372.265,-286 378.265,-286 384.265,-292 384.265,-298 384.265,-298 384.265,-345 384.265,-345 384.265,-351 378.265,-357 372.265,-357 372.265,-357 172.834,-357 172.834,-357 166.834,-357 160.834,-351 160.834,-345 160.834,-345 160.834,-298 160.834,-298 160.834,-292 166.834,-286 172.834,-286"/>
<text text-anchor="middle" x="272.55" y="-344.2" font-family="Times,serif" font-size="11.00" fill="gray">Exception</text>
</g>
<!-- \\Phapper\\Exception\\RedditAuthenticationException -->
<g id="node1" class="node"><title>\\Phapper\\Exception\\RedditAuthenticationException</title>
<polygon fill="none" stroke="black" points="376.481,-330 168.618,-330 168.618,-294 376.481,-294 376.481,-330"/>
<text text-anchor="middle" x="272.55" y="-308.7" font-family="Courier,monospace" font-size="11.00">RedditAuthenticationException</text>
</g>
<!-- \\Exception -->
<g id="node7" class="node"><title>\\Exception</title>
<ellipse fill="none" stroke="black" cx="48.417" cy="-312" rx="48.3341" ry="18"/>
<text text-anchor="middle" x="48.417" y="-307.8" font-family="Times,serif" font-size="14.00" fill="gray">\Exception</text>
</g>
<!-- \\Phapper\\Exception\\RedditAuthenticationException&#45;&gt;\\Exception -->
<g id="edge1" class="edge"><title>\\Phapper\\Exception\\RedditAuthenticationException&#45;&gt;\\Exception</title>
<path fill="none" stroke="black" d="M168.612,-312C147.45,-312 125.892,-312 107.034,-312"/>
<polygon fill="none" stroke="black" points="106.854,-308.5 96.8544,-312 106.854,-315.5 106.854,-308.5"/>
</g>
<!-- \\Phapper\\OAuth2 -->
<g id="node2" class="node"><title>\\Phapper\\OAuth2</title>
<polygon fill="none" stroke="black" points="300.157,-276 244.942,-276 244.942,-240 300.157,-240 300.157,-276"/>
<text text-anchor="middle" x="272.55" y="-254.7" font-family="Courier,monospace" font-size="11.00">OAuth2</text>
</g>
<!-- \\Phapper\\RateLimiter -->
<g id="node3" class="node"><title>\\Phapper\\RateLimiter</title>
<polygon fill="none" stroke="black" points="316.662,-222 228.437,-222 228.437,-186 316.662,-186 316.662,-222"/>
<text text-anchor="middle" x="272.55" y="-200.7" font-family="Courier,monospace" font-size="11.00">RateLimiter</text>
</g>
<!-- \\Phapper\\Live -->
<g id="node4" class="node"><title>\\Phapper\\Live</title>
<polygon fill="none" stroke="black" points="299.55,-168 245.55,-168 245.55,-132 299.55,-132 299.55,-168"/>
<text text-anchor="middle" x="272.55" y="-146.7" font-family="Courier,monospace" font-size="11.00">Live</text>
</g>
<!-- \\Phapper\\Config -->
<g id="node5" class="node"><title>\\Phapper\\Config</title>
<polygon fill="none" stroke="black" points="300.157,-114 244.942,-114 244.942,-78 300.157,-78 300.157,-114"/>
<text text-anchor="middle" x="272.55" y="-92.7" font-family="Courier,monospace" font-size="11.00">Config</text>
</g>
<!-- \\Phapper\\Phapper -->
<g id="node6" class="node"><title>\\Phapper\\Phapper</title>
<polygon fill="none" stroke="black" points="303.757,-60 241.342,-60 241.342,-24 303.757,-24 303.757,-60"/>
<text text-anchor="middle" x="272.55" y="-38.7" font-family="Courier,monospace" font-size="11.00">Phapper</text>
</g>
</g>
</svg>
